<svg width="20" height="20" viewBox="0 0 20 20" fill="none" xmlns="http://www.w3.org/2000/svg">
<g clip-path="url(#clip0_793_4120)">
<path d="M6.85667 12.5083H5V10.8333H6.88417C8.44917 10.8333 8.55333 12.5083 6.85667 12.5083ZM12.4883 10.2775H15.0033C14.9058 8.84833 12.7283 8.63 12.4883 10.2775ZM6.81833 7.5H5V9.16667H6.99083C8.385 9.16667 8.605 7.5 6.81833 7.5ZM20 4.16667V15.8333C20 18.1342 18.135 20 15.8333 20H4.16667C1.865 20 0 18.1342 0 15.8333V4.16667C0 1.86583 1.865 0 4.16667 0H15.8333C18.135 0 20 1.86583 20 4.16667ZM11.6667 6.66667H15.8333V5.83333H11.6667V6.66667ZM8.70667 9.68167C10.2958 8.87 10.2375 5.89 7.19583 5.845H3.33333V14.16H6.92583C10.6942 14.16 10.63 10.3817 8.70667 9.68167ZM16.6125 10.1833C16.3842 8.71417 15.3392 7.725 13.6267 7.725C11.8817 7.725 10.8333 8.84167 10.8333 11.0142C10.8333 13.2067 11.9725 14.1667 13.68 14.1667C15.3875 14.1667 16.2683 13.2208 16.5133 12.5H14.7542C14.1408 13.2125 12.3433 12.9342 12.4483 11.3725H16.665C16.6733 10.8442 16.655 10.465 16.6125 10.1833Z" fill="#141414"/>
</g>
<defs>
<clipPath id="clip0_793_4120">
<rect width="20" height="20" fill="white"/>
</clipPath>
</defs>
</svg>
