<svg width="19" height="20" viewBox="0 0 19 20" fill="none" xmlns="http://www.w3.org/2000/svg">
<g clip-path="url(#clip0_793_4118)">
<path d="M15.0417 0H3.95833C1.77254 0 0 1.86583 0 4.16667V15.8333C0 18.1342 1.77254 20 3.95833 20H15.0417C17.2283 20 19 18.1342 19 15.8333V4.16667C19 1.86583 17.2283 0 15.0417 0ZM6.33333 15.8333H3.95833V6.66667H6.33333V15.8333ZM5.14583 5.61C4.38108 5.61 3.76042 4.95167 3.76042 4.14C3.76042 3.32833 4.38108 2.67 5.14583 2.67C5.91058 2.67 6.53125 3.32833 6.53125 4.14C6.53125 4.95167 5.91138 5.61 5.14583 5.61ZM15.8333 15.8333H13.4583V11.1633C13.4583 8.35667 10.2917 8.56917 10.2917 11.1633V15.8333H7.91667V6.66667H10.2917V8.1375C11.3968 5.9825 15.8333 5.82333 15.8333 10.2008V15.8333Z" fill="#141414"/>
</g>
<defs>
<clipPath id="clip0_793_4118">
<rect width="19" height="20" fill="white"/>
</clipPath>
</defs>
</svg>
