<svg width="19" height="18" viewBox="0 0 19 18" fill="none" xmlns="http://www.w3.org/2000/svg">
<path d="M10.5 5V1C10.5 0.716667 10.5958 0.479167 10.7875 0.2875C10.9792 0.0958333 11.2167 0 11.5 0H17.5C17.7833 0 18.0208 0.0958333 18.2125 0.2875C18.4042 0.479167 18.5 0.716667 18.5 1V5C18.5 5.28333 18.4042 5.52083 18.2125 5.7125C18.0208 5.90417 17.7833 6 17.5 6H11.5C11.2167 6 10.9792 5.90417 10.7875 5.7125C10.5958 5.52083 10.5 5.28333 10.5 5ZM0.5 9V1C0.5 0.716667 0.595833 0.479167 0.7875 0.2875C0.979167 0.0958333 1.21667 0 1.5 0H7.5C7.78333 0 8.02083 0.0958333 8.2125 0.2875C8.40417 0.479167 8.5 0.716667 8.5 1V9C8.5 9.28333 8.40417 9.52083 8.2125 9.7125C8.02083 9.90417 7.78333 10 7.5 10H1.5C1.21667 10 0.979167 9.90417 0.7875 9.7125C0.595833 9.52083 0.5 9.28333 0.5 9ZM10.5 17V9C10.5 8.71667 10.5958 8.47917 10.7875 8.2875C10.9792 8.09583 11.2167 8 11.5 8H17.5C17.7833 8 18.0208 8.09583 18.2125 8.2875C18.4042 8.47917 18.5 8.71667 18.5 9V17C18.5 17.2833 18.4042 17.5208 18.2125 17.7125C18.0208 17.9042 17.7833 18 17.5 18H11.5C11.2167 18 10.9792 17.9042 10.7875 17.7125C10.5958 17.5208 10.5 17.2833 10.5 17ZM0.5 17V13C0.5 12.7167 0.595833 12.4792 0.7875 12.2875C0.979167 12.0958 1.21667 12 1.5 12H7.5C7.78333 12 8.02083 12.0958 8.2125 12.2875C8.40417 12.4792 8.5 12.7167 8.5 13V17C8.5 17.2833 8.40417 17.5208 8.2125 17.7125C8.02083 17.9042 7.78333 18 7.5 18H1.5C1.21667 18 0.979167 17.9042 0.7875 17.7125C0.595833 17.5208 0.5 17.2833 0.5 17ZM2.5 8H6.5V2H2.5V8ZM12.5 16H16.5V10H12.5V16ZM12.5 4H16.5V2H12.5V4ZM2.5 16H6.5V14H2.5V16Z" fill="#141414"/>
</svg>
