<svg width="17" height="16" viewBox="0 0 17 16" fill="none" xmlns="http://www.w3.org/2000/svg">
<path d="M3.58 12.08C4.26 11.56 5.02 11.15 5.86 10.85C6.7 10.55 7.58 10.4 8.5 10.4C9.42 10.4 10.3 10.55 11.14 10.85C11.98 11.15 12.74 11.56 13.42 12.08C13.8867 11.5333 14.25 10.9133 14.51 10.22C14.77 9.52667 14.9 8.78667 14.9 8C14.9 6.22667 14.2767 4.71667 13.03 3.47C11.7833 2.22333 10.2733 1.6 8.5 1.6C6.72667 1.6 5.21667 2.22333 3.97 3.47C2.72333 4.71667 2.1 6.22667 2.1 8C2.1 8.78667 2.23 9.52667 2.49 10.22C2.75 10.9133 3.11333 11.5333 3.58 12.08ZM8.5 8.8C7.71333 8.8 7.05 8.53 6.51 7.99C5.97 7.45 5.7 6.78667 5.7 6C5.7 5.21333 5.97 4.55 6.51 4.01C7.05 3.47 7.71333 3.2 8.5 3.2C9.28667 3.2 9.95 3.47 10.49 4.01C11.03 4.55 11.3 5.21333 11.3 6C11.3 6.78667 11.03 7.45 10.49 7.99C9.95 8.53 9.28667 8.8 8.5 8.8ZM8.5 16C7.39333 16 6.35333 15.79 5.38 15.37C4.40667 14.95 3.56 14.38 2.84 13.66C2.12 12.94 1.55 12.0933 1.13 11.12C0.71 10.1467 0.5 9.10667 0.5 8C0.5 6.89333 0.71 5.85333 1.13 4.88C1.55 3.90667 2.12 3.06 2.84 2.34C3.56 1.62 4.40667 1.05 5.38 0.63C6.35333 0.21 7.39333 0 8.5 0C9.60667 0 10.6467 0.21 11.62 0.63C12.5933 1.05 13.44 1.62 14.16 2.34C14.88 3.06 15.45 3.90667 15.87 4.88C16.29 5.85333 16.5 6.89333 16.5 8C16.5 9.10667 16.29 10.1467 15.87 11.12C15.45 12.0933 14.88 12.94 14.16 13.66C13.44 14.38 12.5933 14.95 11.62 15.37C10.6467 15.79 9.60667 16 8.5 16ZM8.5 14.4C9.20667 14.4 9.87333 14.2967 10.5 14.09C11.1267 13.8833 11.7 13.5867 12.22 13.2C11.7 12.8133 11.1267 12.5167 10.5 12.31C9.87333 12.1033 9.20667 12 8.5 12C7.79333 12 7.12667 12.1033 6.5 12.31C5.87333 12.5167 5.3 12.8133 4.78 13.2C5.3 13.5867 5.87333 13.8833 6.5 14.09C7.12667 14.2967 7.79333 14.4 8.5 14.4ZM8.5 7.2C8.84667 7.2 9.13333 7.08667 9.36 6.86C9.58667 6.63333 9.7 6.34667 9.7 6C9.7 5.65333 9.58667 5.36667 9.36 5.14C9.13333 4.91333 8.84667 4.8 8.5 4.8C8.15333 4.8 7.86667 4.91333 7.64 5.14C7.41333 5.36667 7.3 5.65333 7.3 6C7.3 6.34667 7.41333 6.63333 7.64 6.86C7.86667 7.08667 8.15333 7.2 8.5 7.2Z" fill="#141414"/>
</svg>
